<?xml version="1.0" standalone="no"?>
<!DOCTYPE svg PUBLIC "-//W3C//DTD SVG 20010904//EN"
 "http://www.w3.org/TR/2001/REC-SVG-20010904/DTD/svg10.dtd">
<svg version="1.0" xmlns="http://www.w3.org/2000/svg"
 width="480.000000pt" height="480.000000pt" viewBox="0 0 480.000000 480.000000"
 preserveAspectRatio="xMidYMid meet">

<g transform="translate(0.000000,480.000000) scale(0.100000,-0.100000)"
fill="#000000" stroke="none">
<path d="M2220 4794 c-14 -2 -65 -9 -115 -15 -433 -51 -858 -230 -1210 -509
-103 -81 -284 -262 -365 -365 -439 -553 -617 -1262 -489 -1945 180 -955 911
-1706 1857 -1906 802 -170 1619 72 2197 651 581 580 820 1394 650 2205 -72
342 -245 706 -475 995 -81 103 -262 284 -365 365 -343 272 -728 438 -1175 507
-91 13 -458 26 -510 17z m460 -136 c25 -9 70 -19 100 -23 176 -23 192 -27 417
-113 29 -11 74 -33 100 -49 27 -16 88 -49 137 -73 48 -24 107 -61 131 -82 24
-21 46 -38 50 -38 26 0 300 -264 291 -279 -4 -6 -3 -11 2 -11 5 0 15 -13 22
-30 7 -16 26 -44 44 -63 17 -19 42 -51 56 -71 14 -21 40 -55 58 -78 17 -22 32
-46 32 -53 0 -6 17 -32 38 -56 22 -24 45 -62 52 -84 7 -22 30 -74 51 -115 40
-78 87 -196 106 -265 28 -98 33 -128 44 -261 11 -123 11 -153 -4 -238 -9 -54
-23 -106 -31 -115 -9 -10 -16 -22 -16 -28 0 -5 -9 -18 -20 -28 -11 -10 -20
-26 -20 -35 0 -19 -26 -34 -41 -24 -5 3 -9 -2 -9 -10 0 -8 -9 -18 -20 -21 -11
-3 -20 -12 -20 -20 0 -8 -9 -16 -19 -20 -19 -6 -38 -40 -33 -58 3 -9 -15 -27
-43 -43 -12 -6 -21 -24 -23 -43 -2 -20 -9 -31 -19 -31 -8 0 -17 -9 -20 -19 -3
-11 -17 -24 -32 -30 -30 -13 -101 -71 -87 -71 15 0 -47 -61 -71 -71 -16 -6
-23 -17 -23 -34 0 -14 -4 -25 -8 -25 -5 0 -17 -20 -28 -45 -10 -25 -21 -45
-25 -45 -4 0 -12 -15 -19 -32 -20 -51 -68 -113 -147 -193 -44 -44 -73 -82 -73
-94 0 -16 -6 -21 -29 -21 -18 0 -31 -6 -35 -17 -14 -38 -31 -63 -42 -63 -7 0
-15 -10 -19 -23 -4 -13 -8 -17 -12 -9 -3 9 -13 5 -35 -13 -16 -14 -35 -25 -42
-25 -7 0 -22 -11 -34 -25 -12 -14 -33 -25 -46 -25 -16 0 -27 -7 -31 -20 -3
-11 -12 -20 -20 -20 -7 0 -15 -8 -17 -18 -4 -12 -25 -23 -67 -35 -34 -10 -64
-24 -67 -32 -4 -8 -15 -15 -25 -15 -10 0 -19 -4 -19 -8 0 -5 -27 -17 -60 -28
-33 -10 -60 -23 -60 -27 0 -5 5 -5 10 -2 6 3 10 -3 10 -13 0 -11 7 -25 16 -32
8 -8 20 -23 25 -34 6 -12 -8 2 -32 29 -203 239 -428 341 -634 290 -155 -39
-287 -129 -415 -285 -87 -105 -104 -118 -45 -35 11 17 26 45 32 63 10 29 9 33
-10 44 -12 7 -33 13 -45 14 -13 0 -27 6 -30 11 -11 16 -109 63 -132 63 -31 0
-60 18 -60 38 0 16 -50 52 -71 52 -6 0 -15 5 -22 10 -24 21 -88 60 -97 60 -5
0 -22 17 -37 38 -33 44 -82 92 -93 92 -5 0 -32 25 -62 57 -29 31 -68 71 -85
89 -18 18 -33 38 -33 43 0 6 -19 28 -42 50 -28 26 -51 60 -67 100 -13 33 -30
62 -37 65 -8 3 -14 16 -14 28 0 13 -7 34 -16 46 -23 33 -109 113 -157 145 -23
16 -52 47 -63 70 -12 23 -52 70 -88 105 -65 63 -78 82 -54 82 6 0 0 12 -13 28
-14 15 -33 39 -42 55 -11 17 -26 27 -41 27 -19 0 -27 10 -44 53 -26 67 -42
164 -42 258 0 130 49 393 80 434 4 6 15 35 25 65 10 30 36 91 58 135 22 44 51
103 65 130 13 28 34 61 46 75 12 14 29 35 37 46 8 12 38 56 67 97 28 42 52 79
52 83 0 4 9 14 20 24 11 9 21 26 23 36 4 30 17 45 35 42 12 -2 18 5 20 25 2
15 9 27 16 27 8 0 31 21 52 47 52 64 146 153 160 153 7 0 14 3 16 8 4 9 85 72
92 72 3 0 25 15 49 33 58 45 389 207 422 207 7 0 15 3 17 8 4 9 198 60 278 73
30 5 89 15 130 23 108 20 488 16 550 -6z m-65 -3682 l50 -15 -85 6 c-47 3
-104 9 -127 13 -24 4 -100 2 -170 -5 -71 -7 -129 -11 -131 -10 -2 2 20 8 50
14 29 6 62 13 73 15 42 10 291 -3 340 -18z m-482 -23 c-7 -2 -19 -2 -25 0 -7
3 -2 5 12 5 14 0 19 -2 13 -5z m574 1 c-3 -3 -12 -4 -19 -1 -8 3 -5 6 6 6 11
1 17 -2 13 -5z m-637 -14 c-8 -5 -22 -9 -30 -9 -10 0 -8 3 5 9 27 12 43 12 25
0z"/>
<path d="M1180 2799 c-43 -17 -60 -40 -60 -79 0 -67 45 -89 210 -100 82 -5
136 -15 188 -33 83 -29 199 -93 255 -141 l39 -32 -59 3 c-73 5 -122 -21 -169
-90 -125 -182 -106 -501 38 -634 52 -47 101 -65 152 -53 103 23 178 137 206
313 17 102 1 219 -41 308 l-30 62 45 -41 c64 -59 126 -56 126 7 0 53 -189 262
-330 365 -149 110 -281 156 -439 155 -58 0 -117 -5 -131 -10z"/>
<path d="M3305 2786 c-92 -30 -175 -73 -255 -132 -141 -103 -330 -312 -330
-365 0 -63 62 -66 125 -8 l45 41 -29 -63 c-89 -199 -45 -479 93 -584 74 -57
148 -51 224 18 144 132 163 449 39 634 -45 67 -96 94 -170 91 l-59 -3 39 32
c57 48 172 111 255 140 51 18 107 28 188 34 160 11 210 33 210 91 0 76 -46 98
-197 98 -85 -1 -123 -6 -178 -24z"/>
</g>
</svg>
