<?xml version="1.0" standalone="no"?>
<!DOCTYPE svg PUBLIC "-//W3C//DTD SVG 20010904//EN"
 "http://www.w3.org/TR/2001/REC-SVG-20010904/DTD/svg10.dtd">
<svg version="1.0" xmlns="http://www.w3.org/2000/svg"
 width="1236.000000pt" height="1280.000000pt" viewBox="0 0 1236.000000 1280.000000"
 preserveAspectRatio="xMidYMid meet">
<metadata>
Created by potrace 1.15, written by Peter Selinger 2001-2017
</metadata>
<g transform="translate(0.000000,1280.000000) scale(0.100000,-0.100000)"
fill="#000000" stroke="none">
<path d="M8438 12761 c-63 -46 -100 -89 -188 -221 -141 -210 -232 -277 -794
-575 -547 -290 -766 -436 -926 -615 -150 -169 -274 -284 -377 -353 -137 -91
-298 -174 -476 -246 -189 -76 -243 -109 -328 -199 -58 -62 -81 -98 -148 -235
-44 -90 -96 -183 -116 -208 -71 -92 -186 -150 -336 -168 -46 -6 -259 -15 -474
-21 -548 -14 -776 -42 -1096 -134 -592 -170 -1177 -532 -1909 -1182 -234 -207
-567 -545 -655 -664 -288 -390 -496 -916 -575 -1453 -23 -159 -40 -344 -40
-449 0 -83 43 -421 91 -712 291 -1773 800 -3084 1437 -3698 97 -93 200 -172
527 -403 799 -565 1372 -906 1709 -1019 229 -77 354 -92 649 -75 292 16 422 9
637 -35 234 -49 429 -73 700 -87 415 -22 846 4 1685 102 257 29 280 31 475 23
258 -11 372 -8 480 12 249 46 562 187 949 426 153 95 796 530 1047 709 504
359 747 634 984 1114 105 212 315 725 448 1090 339 934 531 1902 536 2700 1
267 -11 367 -79 630 -109 425 -323 845 -621 1220 -185 232 -695 702 -1129
1040 -412 322 -889 568 -1361 703 -407 117 -682 152 -1199 152 -399 0 -561 26
-743 119 -36 18 -42 26 -42 54 0 69 99 228 258 417 199 236 368 326 647 345
275 18 1000 219 1583 439 389 147 826 353 867 409 15 22 20 44 20 90 -1 139
-105 276 -271 357 -69 33 -105 59 -158 113 -126 126 -260 209 -422 261 -105
33 -198 50 -444 81 -361 45 -503 78 -684 159 -32 14 -64 26 -71 26 -6 0 -36
-18 -67 -39z m257 -227 c158 -55 213 -66 470 -99 339 -43 466 -71 595 -132 63
-30 93 -55 190 -152 117 -119 183 -164 279 -192 91 -27 142 -116 104 -181 -28
-48 -54 -62 -293 -159 -615 -248 -1189 -439 -1536 -513 -60 -13 -121 -30 -135
-39 -14 -9 -52 -27 -85 -39 -53 -20 -80 -22 -254 -24 -194 -1 -195 -1 -270
-33 -248 -103 -511 -349 -681 -636 -71 -121 -102 -159 -145 -180 -46 -22 -119
-14 -193 20 -29 14 -56 25 -60 25 -4 0 -13 -27 -19 -60 -6 -34 -22 -86 -36
-117 -30 -65 -31 -71 -10 -94 19 -21 11 -39 -17 -39 -58 0 -71 -33 -43 -113
24 -71 17 -98 -34 -122 -62 -31 -71 -43 -88 -131 -21 -103 -33 -120 -86 -129
-76 -11 -98 -24 -98 -56 0 -26 7 -33 57 -56 60 -29 127 -87 120 -106 -2 -8
-27 -11 -68 -10 -497 13 -792 2 -861 -33 -59 -30 -77 -8 -97 121 -7 44 -28
133 -47 197 -48 166 -59 252 -46 349 18 122 65 198 116 185 17 -4 34 -24 57
-65 39 -75 64 -99 87 -85 23 15 33 63 22 104 -6 19 -10 59 -10 87 0 50 2 53
33 66 18 8 45 31 61 52 45 59 81 70 228 68 89 -1 130 2 135 10 10 16 28 63 65
172 16 50 39 105 51 124 l20 34 -22 18 c-33 27 -115 50 -198 56 l-72 6 16 23
c24 37 136 106 258 159 157 68 187 90 263 185 97 123 272 300 387 393 163 131
293 210 615 371 340 170 365 184 570 336 80 59 166 118 192 130 63 29 94 67
155 186 94 183 135 196 358 118z m-2985 -2219 c10 -12 10 -18 0 -30 -17 -21
-54 -15 -58 9 -7 32 36 48 58 21z m-279 -155 c10 -6 19 -19 19 -28 0 -26 -47
-90 -71 -97 -27 -9 -39 8 -39 57 0 28 6 42 26 57 30 24 38 25 65 11z m-265
-553 c37 -19 74 -90 82 -154 4 -42 4 -43 -34 -60 -32 -13 -78 -16 -270 -17
l-230 -1 -59 45 c-87 67 -155 130 -155 144 0 22 47 35 163 46 255 23 456 22
503 -3z m2561 -13 c62 -12 61 -63 -1 -84 -60 -19 -146 17 -146 62 0 33 53 41
147 22z m-3644 -15 c185 -22 331 -82 534 -218 141 -95 164 -118 193 -196 26
-72 36 -85 65 -85 12 0 33 -8 46 -19 13 -10 35 -22 49 -26 126 -39 378 -232
368 -283 -12 -58 -254 31 -740 273 -254 126 -308 146 -450 160 -116 11 -145 2
-293 -96 -79 -52 -167 -121 -216 -170 -46 -45 -74 -75 -63 -68 12 8 62 42 112
75 105 72 215 117 324 134 171 25 323 -27 517 -179 90 -71 108 -81 144 -81 27
0 75 -16 151 -51 274 -126 504 -189 791 -217 57 -6 70 -10 73 -25 9 -44 -105
-109 -221 -129 -34 -5 -72 -12 -84 -14 -31 -6 -163 -107 -278 -213 -195 -179
-395 -417 -465 -553 -33 -64 -34 -68 -17 -85 24 -25 38 -14 125 98 164 211
292 328 507 464 61 38 211 134 335 214 401 259 493 291 675 234 120 -37 263
-120 655 -378 342 -225 448 -317 609 -533 86 -115 131 -140 131 -73 0 96 -369
540 -582 700 -148 111 -179 131 -210 131 -111 0 -283 83 -276 133 3 20 11 23
93 30 213 19 509 100 746 206 64 29 134 54 155 57 72 10 79 13 139 65 150 128
325 157 538 87 83 -27 136 -55 246 -129 121 -80 230 -189 376 -374 181 -228
446 -484 565 -545 53 -27 97 -81 105 -129 4 -27 16 -48 33 -61 14 -11 33 -37
43 -58 10 -20 32 -56 50 -78 26 -35 29 -45 20 -63 -19 -34 -51 -34 -147 -3
-124 41 -146 45 -167 30 -9 -7 -37 -67 -61 -134 -24 -67 -59 -145 -78 -175
-46 -71 -150 -175 -185 -184 -33 -8 -44 3 -146 149 -146 208 -451 598 -489
624 -27 20 -82 7 -122 -28 -44 -39 -66 -100 -127 -349 -59 -239 -87 -311 -174
-441 -130 -194 -306 -370 -565 -563 -152 -113 -190 -146 -190 -162 0 -30 301
-147 465 -180 93 -19 255 -40 375 -50 149 -11 213 -24 238 -48 72 -67 178
-403 213 -672 6 -49 24 -146 40 -215 62 -274 64 -521 8 -912 -36 -251 -88
-388 -204 -540 -40 -51 -79 -117 -98 -164 -29 -69 -38 -82 -74 -102 -60 -33
-199 -66 -523 -123 -157 -27 -472 -83 -700 -124 -578 -104 -620 -109 -855
-109 -281 0 -405 18 -1215 179 -607 120 -934 183 -1020 196 -85 13 -120 30
-120 59 0 28 32 41 84 34 37 -6 47 -4 52 10 9 22 -27 118 -94 251 -74 148 -98
224 -127 395 -35 210 -45 307 -45 465 0 257 37 532 111 834 44 179 142 492
166 528 21 32 57 39 293 63 254 25 390 50 539 99 136 45 271 107 271 125 0 16
-40 52 -125 111 -309 215 -559 483 -693 744 -73 141 -103 228 -148 424 -19 83
-43 170 -54 193 -22 50 -69 84 -117 84 -29 0 -43 -12 -125 -108 -343 -402
-622 -824 -703 -1066 -22 -66 -25 -91 -25 -218 0 -121 4 -150 20 -186 15 -32
17 -49 10 -62 -6 -11 -74 -50 -153 -88 -85 -41 -160 -86 -187 -110 l-45 -41
31 -28 c65 -60 166 -236 198 -342 25 -85 20 -153 -18 -263 -56 -163 -159 -314
-310 -454 -42 -39 -76 -76 -76 -82 0 -24 50 -33 114 -21 125 22 254 78 305
133 27 29 65 170 82 306 5 47 16 94 23 105 7 11 15 56 18 100 5 78 30 148 121
334 15 29 143 150 222 209 88 65 133 89 197 106 49 13 65 13 120 0 94 -21 108
-29 108 -62 0 -16 -23 -89 -51 -163 -111 -294 -195 -634 -219 -884 -6 -60 -22
-186 -35 -280 -13 -93 -29 -242 -35 -330 -19 -260 -41 -360 -106 -489 -31 -60
-64 -143 -75 -184 -10 -42 -27 -84 -36 -94 -18 -20 -63 -23 -128 -9 -22 5
-110 17 -195 26 -611 64 -741 97 -968 244 -226 145 -662 355 -662 319 0 -25
348 -818 655 -1493 126 -277 144 -337 110 -365 -37 -31 -210 94 -401 291 -55
57 -108 116 -118 132 -10 15 -25 27 -32 27 -17 0 -17 2 1 -50 24 -68 97 -169
182 -251 93 -90 161 -137 303 -210 132 -67 209 -142 340 -328 104 -147 208
-264 303 -340 124 -98 468 -307 596 -361 111 -48 175 -60 351 -71 196 -11 318
-28 469 -65 101 -25 139 -27 115 -5 -5 4 -110 32 -234 61 -361 83 -554 139
-749 214 -189 73 -222 96 -397 270 -275 276 -501 571 -604 791 -134 286 -320
938 -320 1124 0 63 27 116 60 116 31 0 44 -39 59 -176 13 -123 76 -369 136
-534 72 -201 170 -389 315 -610 259 -392 400 -560 552 -658 160 -104 199 -163
108 -162 -25 1 -63 5 -84 9 -50 11 -42 -5 16 -31 85 -40 148 -36 148 7 0 11
10 26 23 34 36 24 155 48 239 48 98 0 157 -26 248 -110 65 -59 65 -60 70 -123
l5 -64 140 140 c150 150 230 205 298 205 72 0 98 -26 177 -178 42 -80 69 -102
128 -102 l44 0 -7 -95 c-4 -52 -4 -95 -1 -95 10 0 86 32 86 36 0 3 -10 18 -21
34 -28 36 -21 87 23 179 23 50 54 89 127 161 53 53 111 102 129 109 45 19 76
3 170 -83 39 -36 98 -79 130 -95 44 -22 64 -39 76 -66 21 -44 36 -131 36 -213
0 -69 12 -78 39 -30 13 23 12 36 -7 121 -28 123 -29 226 -2 281 38 78 104 101
350 125 58 5 160 22 227 37 149 34 165 30 182 -43 6 -26 15 -176 21 -333 5
-157 13 -328 16 -381 7 -96 7 -97 -20 -114 -24 -16 -37 -16 -143 -5 -123 12
-245 35 -398 75 -186 49 -262 59 -440 59 -155 0 -273 -9 -262 -20 13 -13 484
-99 717 -130 174 -23 748 -24 1015 0 296 26 688 88 786 125 27 10 -163 21
-358 21 -112 0 -140 -3 -171 -19 -46 -24 -189 -54 -354 -76 -124 -16 -129 -16
-160 2 -68 39 -123 167 -168 383 -29 144 -35 220 -22 298 6 37 14 84 17 105 8
48 36 77 75 77 16 0 64 -11 107 -25 45 -15 124 -30 188 -36 294 -27 348 -41
386 -103 25 -41 26 -173 2 -314 l-17 -102 22 -22 c27 -27 27 -26 40 119 12
141 25 165 110 208 34 18 92 60 127 94 35 34 80 68 100 77 34 14 40 14 81 -6
67 -33 195 -163 230 -235 26 -54 29 -70 30 -161 0 -105 13 -147 50 -161 27
-10 52 29 124 192 61 140 76 166 119 206 56 53 121 79 193 79 44 0 53 -5 119
-62 39 -34 94 -92 122 -130 27 -37 55 -68 62 -68 7 0 24 -9 38 -20 l25 -20 7
28 c4 15 25 45 48 67 23 22 48 58 56 80 16 47 44 81 86 103 55 29 286 13 343
-25 44 -28 65 -113 41 -167 -13 -28 -33 -38 -144 -65 -44 -12 -127 -37 -185
-56 -137 -47 -287 -86 -488 -129 -170 -37 -182 -40 -182 -58 0 -12 47 -6 130
17 96 27 220 44 425 60 110 9 222 20 248 25 95 19 485 233 657 360 188 139
286 243 419 445 87 134 144 185 305 278 159 91 290 190 369 278 62 67 117 166
117 208 0 22 -11 14 -82 -64 -168 -182 -305 -302 -405 -351 -62 -31 -83 -27
-83 15 0 49 22 102 237 586 340 762 543 1227 543 1242 0 16 -73 -12 -247 -92
-213 -100 -286 -126 -302 -110 -12 13 -48 328 -61 540 -5 94 -12 196 -14 227
-4 57 -11 72 -71 159 -26 37 -30 53 -34 121 -2 64 2 95 23 162 47 153 33 161
-73 45 -86 -94 -85 -60 -7 -285 66 -192 109 -408 110 -561 1 -86 -3 -126 -12
-135 -23 -23 -43 15 -64 119 -11 54 -26 108 -35 121 -14 22 -18 23 -91 17 -79
-8 -140 -26 -154 -48 -18 -28 -6 -76 38 -152 73 -128 144 -273 144 -295 0 -36
-49 -223 -65 -247 -37 -56 -67 -64 -340 -93 -225 -24 -363 -43 -675 -95 -241
-40 -413 -55 -424 -36 -14 22 5 50 49 71 63 31 93 57 116 101 21 42 38 151 33
209 -2 19 -10 100 -19 180 -8 80 -19 231 -25 335 -34 623 -109 1031 -261 1422
-32 83 -59 161 -59 173 0 28 21 35 228 69 312 53 457 99 523 167 l34 35 -1
172 c0 161 -2 177 -27 246 -46 128 -38 151 78 224 61 39 85 83 85 157 0 57 18
139 39 178 7 12 29 33 49 47 20 13 63 45 95 69 35 28 72 47 95 51 20 3 67 11
104 17 84 14 101 4 148 -83 55 -106 84 -142 257 -322 198 -206 329 -366 456
-559 134 -201 213 -348 231 -425 12 -55 22 -73 68 -121 167 -176 213 -311 258
-760 11 -111 24 -232 30 -270 43 -301 -37 -894 -221 -1624 -24 -98 -39 -180
-39 -219 0 -73 -39 -199 -101 -321 -23 -46 -50 -110 -59 -143 -43 -150 -125
-317 -288 -588 -69 -114 -110 -171 -150 -208 -68 -62 -191 -146 -238 -163 -19
-6 -63 -34 -96 -61 -34 -27 -113 -77 -177 -110 -107 -56 -116 -62 -113 -87 3
-22 -6 -33 -55 -68 -53 -38 -62 -41 -102 -36 -43 6 -48 4 -245 -128 -250 -166
-419 -268 -583 -350 -200 -100 -261 -119 -373 -120 -111 -1 -126 6 -272 121
-47 37 -112 82 -144 98 -68 36 -97 76 -89 122 l6 33 -73 0 c-89 0 -131 -19
-171 -78 -15 -23 -54 -62 -87 -87 -78 -60 -134 -125 -148 -174 -7 -22 -27 -52
-45 -67 -98 -84 -382 -165 -802 -229 -135 -21 -183 -16 -285 30 -78 35 -179
63 -518 144 -212 51 -334 89 -477 151 -60 26 -184 80 -275 119 -117 50 -172
80 -191 101 -24 28 -36 32 -168 55 -149 26 -191 30 -191 17 0 -4 20 -28 45
-52 67 -66 64 -80 -47 -185 -51 -48 -133 -114 -182 -147 -88 -59 -92 -60 -141
-53 -105 13 -390 123 -620 238 -193 96 -458 259 -678 417 -42 30 -51 33 -75
24 -35 -13 -60 -5 -124 42 -40 30 -49 41 -46 63 3 24 -6 30 -105 81 -59 30
-138 78 -175 107 -37 29 -105 71 -152 94 -112 56 -248 189 -344 335 -82 126
-199 367 -265 544 -27 74 -69 174 -94 221 -60 117 -80 200 -81 326 -1 89 -4
105 -24 132 -44 60 -165 650 -222 1086 -46 347 -36 570 35 851 20 77 49 217
65 313 51 295 106 482 206 691 73 152 120 233 289 495 79 121 195 312 260 425
65 113 138 231 163 263 24 32 180 198 346 370 626 645 754 782 743 793 -3 4
-26 -5 -51 -20 -123 -72 -83 -7 152 244 136 146 102 117 -133 -110 -237 -230
-348 -334 -530 -495 -468 -412 -500 -445 -648 -670 -50 -76 -127 -176 -187
-240 -56 -60 -114 -135 -130 -165 -15 -30 -49 -75 -75 -99 -54 -52 -97 -132
-185 -351 -34 -85 -87 -202 -117 -260 -151 -285 -421 -667 -512 -725 -22 -13
-61 -50 -87 -82 -71 -85 -169 -183 -182 -183 -25 0 -41 49 -52 154 -13 127
-41 297 -74 446 -23 100 -23 110 -10 202 34 242 119 604 194 823 52 150 126
308 184 389 24 33 57 88 74 122 42 83 104 172 236 338 178 223 261 301 566
535 96 74 221 173 276 220 57 48 149 113 208 146 145 81 162 96 148 122 -16
28 -8 34 117 76 57 20 106 39 109 42 4 3 1 15 -6 26 -16 25 0 49 32 49 12 0
61 25 109 55 86 55 114 69 170 86 22 6 32 4 48 -12 31 -31 58 -19 159 76 89
83 128 105 191 105 14 0 50 13 80 28 30 16 97 45 149 66 52 20 149 66 215 101
l120 65 118 -5 c64 -3 154 -10 200 -16z m4556 -48 c75 -38 179 -85 231 -106
52 -20 109 -45 126 -56 18 -11 58 -24 90 -30 81 -15 123 -39 179 -101 49 -55
108 -98 136 -98 9 0 22 7 29 15 28 33 87 15 211 -65 33 -21 81 -47 105 -56 44
-17 45 -19 40 -49 -6 -30 -4 -34 31 -48 21 -8 59 -20 83 -27 25 -6 60 -19 78
-27 29 -14 33 -20 28 -44 -5 -27 3 -34 180 -154 681 -461 1078 -852 1334
-1314 162 -294 277 -655 365 -1153 l26 -147 -56 -293 c-70 -372 -74 -387 -102
-370 -6 4 -46 63 -88 132 -123 199 -132 209 -201 241 -58 26 -64 32 -100 99
-32 61 -51 82 -130 146 -107 86 -162 151 -211 249 -210 418 -493 790 -964
1270 -116 118 -216 228 -227 251 -12 23 -37 95 -57 159 -23 75 -46 131 -64
154 -41 51 -286 288 -406 392 -344 298 -694 545 -895 631 l-75 33 -190 0 -190
0 -166 -87 c-314 -166 -389 -184 -389 -93 0 19 8 39 20 50 12 11 37 46 57 79
57 96 130 192 182 238 66 60 283 174 373 197 102 26 266 47 397 49 72 2 76 1
210 -67z m-3322 -243 c30 -28 31 -85 2 -122 -32 -40 -81 -56 -173 -56 -57 0
-88 -5 -102 -15 -27 -20 -58 -18 -79 6 -19 19 -19 21 0 56 32 58 138 133 220
154 45 12 107 1 132 -23z m-2477 9 c0 -21 -22 -37 -52 -37 -30 0 -37 17 -16
38 16 16 68 15 68 -1z m4403 -71 c42 -17 67 -55 67 -100 0 -48 -26 -62 -66
-35 -23 15 -47 19 -111 19 -72 0 -83 2 -83 18 1 23 27 55 74 86 44 29 72 32
119 12z m-1702 -365 c20 -16 24 -28 24 -80 0 -69 -22 -104 -53 -85 -22 14 -91
123 -91 146 -2 38 80 51 120 19z m633 -147 c21 -21 20 -31 -4 -44 -30 -16 -74
-9 -78 13 -8 41 50 63 82 31z m361 -14 c17 -19 17 -21 0 -40 -38 -42 -118 -6
-99 45 9 23 77 20 99 -5z m1876 -1301 c89 -57 301 -274 376 -384 112 -167 193
-363 193 -471 0 -39 -3 -44 -26 -50 -39 -10 -132 2 -160 21 -37 24 -58 65
-109 213 -71 210 -179 421 -310 607 -23 33 -47 70 -54 83 -19 36 16 28 90 -19z
m-4423 9 c30 -30 3 -106 -92 -251 -103 -157 -272 -539 -306 -692 -13 -59 -30
-80 -90 -110 -111 -55 -221 -71 -228 -32 -7 37 149 399 250 582 131 236 274
421 377 487 49 31 71 34 89 16z m6168 -59 c73 -47 147 -113 225 -201 76 -86
84 -108 42 -108 -52 1 -108 38 -200 131 -98 101 -143 161 -143 190 0 27 19 24
76 -12z m-1197 -889 c33 -17 26 -55 -20 -105 -119 -129 -445 -258 -684 -272
-119 -6 -194 5 -485 76 -113 27 -243 57 -290 66 -107 22 -128 31 -108 51 30
30 120 39 260 25 194 -19 440 -25 554 -12 144 15 271 51 424 119 74 33 146 62
160 65 39 8 166 0 189 -13z m-5269 -172 c109 -19 161 -22 410 -22 249 0 301 3
413 22 147 25 200 27 216 8 27 -32 -27 -73 -135 -101 -139 -36 -483 -66 -789
-68 l-160 -1 -105 38 c-104 37 -120 47 -120 76 0 26 16 41 56 55 53 19 69 18
214 -7z m-2715 -2510 c42 -33 65 -92 65 -173 0 -78 -8 -99 -36 -93 -24 4 -80
114 -95 186 -19 96 6 127 66 80z m9413 -168 c42 -79 -35 -442 -203 -955 -115
-353 -316 -650 -715 -1059 -158 -161 -193 -187 -217 -163 -12 12 -13 19 -4 36
7 11 18 21 26 21 8 0 15 5 15 11 0 7 -10 9 -27 5 -66 -15 -130 -18 -137 -7
-16 25 11 54 127 140 135 99 229 185 298 276 76 99 322 462 389 575 192 318
314 675 350 1022 5 48 14 96 20 108 16 29 60 23 78 -10z m-7694 -105 c251 -62
332 -75 459 -75 101 0 109 -2 132 -25 29 -29 30 -44 13 -237 -10 -119 -10
-155 5 -268 20 -152 17 -162 -50 -191 -64 -27 -142 -25 -201 6 -90 47 -146
111 -296 338 -52 80 -117 171 -144 203 -64 77 -72 94 -72 147 0 37 -4 46 -25
55 -29 13 -43 56 -25 77 7 8 14 15 15 15 2 0 87 -20 189 -45z m7104 5 c2 -19
-5 -32 -28 -48 -25 -19 -30 -29 -30 -66 0 -38 -8 -53 -61 -122 -33 -44 -111
-153 -172 -244 -184 -274 -270 -347 -403 -338 -137 9 -142 67 -38 438 30 107
57 213 61 235 8 56 18 65 77 65 59 0 235 36 386 79 65 18 124 29 155 28 45 -2
50 -4 53 -27z m-6058 -21 c0 -18 -2 -19 -15 -9 -15 12 -12 30 6 30 5 0 9 -10
9 -21z m-125 -129 c17 -7 59 -12 95 -11 46 1 97 -7 175 -29 60 -17 140 -38
178 -46 80 -16 104 -28 111 -51 3 -10 -6 -58 -20 -108 -23 -80 -27 -113 -31
-300 -5 -200 -7 -211 -28 -237 -13 -15 -28 -50 -34 -78 -25 -116 -65 -142
-187 -121 -109 19 -166 51 -250 138 -89 93 -186 217 -218 282 -36 69 -64 172
-72 253 -9 103 18 277 50 317 13 17 184 10 231 -9z m5143 -15 c71 -21 131 -70
164 -134 55 -105 33 -249 -64 -418 -51 -90 -184 -257 -260 -330 -62 -58 -89
-68 -226 -84 -129 -16 -127 -17 -162 176 -11 64 -27 130 -35 146 -22 41 -19
56 18 102 32 41 32 43 31 147 0 94 -3 113 -32 185 -50 125 -47 131 83 153 33
5 75 14 93 21 17 6 47 16 65 22 27 10 129 21 243 27 17 1 53 -5 82 -13z
m-7756 -160 c26 -39 75 -124 109 -190 51 -100 61 -130 62 -175 2 -44 -1 -55
-15 -58 -22 -4 -89 67 -117 124 -29 56 -121 328 -121 354 0 40 34 17 82 -55z
m3571 15 c239 -35 459 -82 470 -102 8 -11 5 -43 -9 -110 -15 -73 -19 -137 -20
-298 -1 -113 -4 -215 -8 -227 -8 -24 -116 -100 -181 -128 -52 -21 -353 -85
-405 -85 -42 0 -43 1 -95 75 -75 108 -84 148 -105 476 -11 170 -2 345 20 404
l11 28 87 -6 c48 -3 154 -15 235 -27z m3467 10 c40 -75 16 -714 -31 -801 -21
-41 -99 -137 -115 -143 -28 -11 -130 -6 -211 9 -155 29 -309 93 -374 155 l-39
37 0 202 c0 165 -4 222 -20 303 -35 168 -33 169 426 228 277 35 349 37 364 10z
m-2705 -136 c245 -34 646 -121 690 -150 34 -22 53 -79 65 -194 29 -282 -7
-510 -90 -572 -14 -10 -50 -22 -80 -28 -30 -5 -109 -20 -175 -34 -167 -36
-301 -36 -371 -1 -61 31 -70 44 -133 185 -28 62 -69 142 -92 176 -62 96 -82
167 -83 304 0 131 19 284 41 318 16 26 5 27 228 -4z m1766 -29 c10 -17 37
-102 60 -190 57 -219 55 -242 -33 -401 -36 -65 -82 -157 -102 -204 -65 -149
-99 -171 -272 -178 -106 -4 -131 -2 -194 17 -40 13 -113 28 -161 36 -197 29
-215 69 -206 455 5 254 16 326 51 341 69 29 411 106 686 152 14 3 54 4 89 3
61 -1 66 -3 82 -31z m-2351 -2085 c0 -5 -6 -10 -14 -10 -8 0 -18 5 -21 10 -3
6 3 10 14 10 12 0 21 -4 21 -10z m889 -394 c13 -16 -1 -31 -39 -41 -31 -8 -66
16 -57 39 8 20 79 22 96 2z"/>
<path d="M8459 12504 c-29 -33 -49 -81 -69 -166 -18 -74 -27 -168 -16 -168 2
0 27 16 56 35 80 54 223 89 421 102 l97 6 43 -37 c28 -24 67 -43 114 -57 38
-12 96 -32 128 -46 32 -13 109 -33 170 -44 62 -11 146 -28 187 -39 41 -10 116
-23 167 -29 51 -5 101 -15 112 -21 23 -12 45 -81 36 -111 -7 -20 -12 -20 -169
-13 l-163 7 -17 -44 c-10 -24 -20 -49 -23 -55 -6 -17 102 -52 197 -63 61 -8
90 -16 104 -31 16 -15 18 -22 8 -32 -38 -38 19 -39 176 -3 137 32 282 88 282
111 0 22 -71 72 -178 127 -82 41 -113 52 -148 51 -49 -1 -49 -2 -57 89 -6 65
-39 97 -152 152 -103 50 -201 78 -330 95 -49 6 -112 20 -140 29 -69 25 -98 29
-275 41 -180 11 -202 16 -333 77 -116 54 -201 67 -228 37z"/>
<path d="M9090 11930 c-122 -69 -202 -93 -298 -88 -61 3 -67 1 -67 -17 0 -40
225 -126 293 -111 15 3 108 23 207 44 99 21 186 41 193 46 12 7 -31 64 -114
153 -49 51 -86 46 -214 -27z"/>
<path d="M6126 5841 c-24 -26 -34 -70 -45 -196 -14 -151 -26 -184 -139 -365
-36 -58 -85 -149 -109 -203 -24 -54 -54 -113 -66 -132 -59 -89 -172 -227 -191
-234 -11 -5 -66 -12 -121 -16 -109 -7 -165 -26 -204 -69 -29 -31 -58 -33 -111
-6 -50 26 -82 25 -106 -1 -17 -19 -17 -22 -3 -32 9 -7 25 -32 36 -57 12 -28
53 -78 106 -129 72 -70 94 -100 136 -184 28 -54 51 -108 51 -118 0 -30 27 -34
84 -10 66 27 71 27 147 -9 76 -35 195 -56 263 -46 33 5 57 17 78 37 42 40 100
41 140 2 21 -20 39 -28 67 -28 26 0 47 9 70 28 33 27 62 32 111 18 16 -4 25
-14 25 -26 0 -19 8 -20 125 -20 191 0 280 40 280 124 0 119 -266 712 -475
1056 -43 72 -84 150 -92 174 -19 64 -16 142 11 288 14 72 22 140 19 151 -7 29
-62 30 -87 3z"/>
</g>
</svg>
